<svg id="Layer_2" enable-background="new 0 0 64 64" height="512" viewBox="0 0 64 64" width="512" xmlns="http://www.w3.org/2000/svg"><g><g><g><path d="m32 2-30 13v34l30 13 30-13v-34zm26 44.37-26 11.27-26-11.27v-28.74l26-11.27 26 11.27z" fill="#fcd770"/><path d="m32 6.36-26 11.27v28.74l26 11.27 26-11.27v-28.74z" fill="#5cd6b3"/><path d="m38 24c0-.55.22-1.05.59-1.41.36-.37.86-.59 1.41-.59 1.1 0 2 .9 2 2v16c0 4.42-3.58 8-8 8h-2-1.49c-4.77 0-8.72-3.73-8.98-8.5l-.35-6.27c-.12-2.15-.44-4.28-.96-6.36l-.17-.66c-.03-.14-.05-.28-.05-.43 0-.98.8-1.78 1.78-1.78 2.33 0 4.22 1.89 4.22 4.22v-8.22c0-.55.22-1.05.59-1.41.36-.37.86-.59 1.41-.59 1.1 0 2 .9 2 2v-2c0-.55.22-1.05.59-1.41.36-.37.86-.59 1.41-.59 1.1 0 2 .9 2 2v2c0-.55.22-1.05.59-1.41.36-.37.86-.59 1.41-.59 1.1 0 2 .9 2 2z" fill="#f5e0cd"/></g></g><g><g><path d="m35 30h-2v-12c0-.552-.448-1-1-1s-1 .448-1 1v12h-2v-12c0-1.654 1.346-3 3-3s3 1.346 3 3z"/></g><g><path d="m34 49h-3.486c-5.304 0-9.689-4.148-9.984-9.445l-.348-6.273c-.117-2.078-.432-4.155-.936-6.174l-.163-.65c-.056-.224-.083-.45-.083-.677 0-1.533 1.248-2.781 2.781-2.781 2.878 0 5.219 2.342 5.219 5.22h-2c0-1.775-1.444-3.22-3.219-3.22-.43 0-.781.351-.781.781 0 .064.008.129.023.19l.163.649c.535 2.142.868 4.345.991 6.549l.348 6.273c.237 4.239 3.746 7.558 7.989 7.558h3.486c3.859 0 7-3.141 7-7v-16c0-.552-.448-1-1-1s-1 .448-1 1h-2c0-1.654 1.346-3 3-3s3 1.346 3 3v16c0 4.963-4.037 9-9 9z"/></g><g><path d="m31 39h-2v-.387c0-1.23-.684-2.335-1.785-2.885-1.369-.681-2.215-2.046-2.215-3.566v-12.162c0-1.654 1.346-3 3-3s3 1.346 3 3h-2c0-.552-.448-1-1-1s-1 .448-1 1v12.162c0 .756.421 1.436 1.099 1.773 1.793.894 2.901 2.685 2.901 4.678z"/></g><g><path d="m39 30h-2v-10c0-.552-.448-1-1-1s-1 .448-1 1h-2c0-1.654 1.346-3 3-3s3 1.346 3 3z"/></g></g><g><path d="m32 63.09-31-13.434v-35.312l31-13.434 31 13.434v35.312zm-29-14.746 29 12.566 29-12.566v-32.688l-29-12.566-29 12.566z"/></g><g><path d="m32 58.73-27-11.7v-30.06l27-11.7 27 11.7v30.06zm-25-13.012 25 10.833 25-10.833v-27.436l-25-10.833-25 10.833z"/></g><g><path d="m31 51h2v11h-2z"/></g><g><path d="m31 2h2v11h-2z"/></g></g></svg>