<svg enable-background="new 0 0 64 64" height="512" viewBox="0 0 64 64" width="512" xmlns="http://www.w3.org/2000/svg"><g id="Grids" display="none"><g id="Grid_16_" display="inline"><g><path d="m51.9 4.1v55.8h-39.8v-55.8zm.1-.1h-40v56h40z" fill="#f00"/></g><g><path d="m59.9 12.1v39.8h-55.8v-39.8zm.1-.1h-56v40h56z" fill="#4600f0"/></g><g><path d="m55.9 8.1v47.8h-47.8v-47.8zm.1-.1h-48v48h48z" fill="#f0c800"/></g><g><path d="m32 6.1c14.281 0 25.9 11.619 25.9 25.9s-11.619 25.9-25.9 25.9-25.9-11.619-25.9-25.9 11.619-25.9 25.9-25.9m0-.1c-14.359 0-26 11.641-26 26s11.641 26 26 26 26-11.641 26-26-11.641-26-26-26z" fill="#00f096"/></g></g></g><g id="Icons"><g><path d="m48 6v50c0 1.12-.93 2-2 2h-36c-1.1 0-2-.9-2-2v-50c0-1.1.9-2 2-2h36c1.1 0 2 .9 2 2z" fill="#00a0c8"/></g><g><path d="m48 25v31c0 1.12-.93 2-2 2h-3.87c-.09-.32-.13-.65-.13-1v-4h-29c-.55 0-1-.45-1-1v-38c0-.55.45-1 1-1h30c.55 0 1 .45 1 1v11.55c.59-.34 1.27-.55 2-.55z" fill="#0082aa"/></g><g><path d="m43 52h-30c-.552 0-1-.448-1-1v-38c0-.552.448-1 1-1h30c.552 0 1 .448 1 1v38c0 .552-.448 1-1 1z" fill="#f0f0f0"/></g><g><g><path d="m33 12v1c0 .55-.45 1-1 1h-8c-.55 0-1-.45-1-1v-1h-2v1c0 1.65 1.35 3 3 3h8c1.65 0 3-1.35 3-3v-1z" fill="#d2d2d2"/></g></g><g><path d="m35 11h-14c-.552 0-1-.448-1-1v-2c0-.552.448-1 1-1h14c.552 0 1 .448 1 1v2c0 .552-.448 1-1 1z" fill="#0082aa"/></g><g><g><path d="m33 9v3c0 .55-.45 1-1 1h-8c-.55 0-1-.45-1-1v-3h-2v3c0 1.65 1.35 3 3 3h8c1.65 0 3-1.35 3-3v-3z" fill="#fab414"/></g></g><g><path d="m21 9h2v2h-2z" fill="#dc9600"/></g><g><path d="m33 9h2v2h-2z" fill="#dc9600"/></g><g><path d="m35 10h-14c-.552 0-1-.448-1-1v-2c0-.552.448-1 1-1h14c.552 0 1 .448 1 1v2c0 .552-.448 1-1 1z" fill="#00325a"/></g><g><path d="m37.714 21.28c-.353-.353-.943-.392-1.356 0l-2.041 2.047-.681-.681c-.375-.375-.981-.375-1.356 0-.347.33-.398.958 0 1.356.877.877.479.479 1.356 1.356.375.385.981.385 1.356 0 .2-.197 2.523-2.514 2.722-2.712.375-.376.375-.991 0-1.366z" fill="#d2d2d2"/></g><g><path d="m37.714 29.28c-.353-.353-.943-.392-1.356 0l-2.041 2.047-.681-.681c-.375-.375-.981-.375-1.356 0-.347.33-.398.958 0 1.356l1.356 1.356c.375.385.981.385 1.356 0 .2-.197 2.523-2.514 2.722-2.712.375-.376.375-.991 0-1.366z" fill="#d2d2d2"/></g><g><path d="m37.719 37.28c-.353-.353-.943-.392-1.356 0l-2.041 2.047-.681-.681c-.375-.375-.981-.375-1.356 0-.347.33-.398.958 0 1.356l1.356 1.356c.375.385.981.385 1.356 0 .2-.197 2.523-2.514 2.722-2.712.375-.376.375-.991 0-1.366z" fill="#d2d2d2"/></g><g><path d="m29 25h-10c-.552 0-1-.448-1-1 0-.552.448-1 1-1h10c.552 0 1 .448 1 1 0 .552-.448 1-1 1z" fill="#d2d2d2"/></g><g><path d="m29 33h-10c-.552 0-1-.448-1-1 0-.552.448-1 1-1h10c.552 0 1 .448 1 1 0 .552-.448 1-1 1z" fill="#d2d2d2"/></g><g><path d="m29 41h-10c-.552 0-1-.448-1-1 0-.552.448-1 1-1h10c.552 0 1 .448 1 1 0 .552-.448 1-1 1z" fill="#d2d2d2"/></g><g><path d="m37.714 20.28c-.353-.353-.943-.392-1.356 0l-2.041 2.047-.681-.681c-.375-.375-.981-.375-1.356 0-.347.33-.398.958 0 1.356.877.877.479.479 1.356 1.356.375.385.981.385 1.356 0 .2-.197 2.523-2.514 2.722-2.712.375-.376.375-.991 0-1.366z" fill="#c80a50"/></g><g><path d="m37.714 28.28c-.353-.353-.943-.392-1.356 0l-2.041 2.047-.681-.681c-.375-.375-.981-.375-1.356 0-.347.33-.398.958 0 1.356.877.877.479.479 1.356 1.356.375.385.981.385 1.356 0 .2-.197 2.523-2.514 2.722-2.712.375-.376.375-.991 0-1.366z" fill="#c80a50"/></g><g><path d="m37.719 36.28c-.353-.353-.943-.392-1.356 0l-2.041 2.047-.681-.681c-.375-.375-.981-.375-1.356 0-.347.33-.398.958 0 1.356l1.356 1.356c.375.385.981.385 1.356 0 .2-.197 2.523-2.514 2.722-2.712.375-.376.375-.991 0-1.366z" fill="#c80a50"/></g><g><path d="m29 24h-10c-.552 0-1-.448-1-1 0-.552.448-1 1-1h10c.552 0 1 .448 1 1 0 .552-.448 1-1 1z" fill="#00325a"/></g><g><path d="m29 32h-10c-.552 0-1-.448-1-1 0-.552.448-1 1-1h10c.552 0 1 .448 1 1 0 .552-.448 1-1 1z" fill="#00325a"/></g><g><path d="m29 40h-10c-.552 0-1-.448-1-1 0-.552.448-1 1-1h10c.552 0 1 .448 1 1 0 .552-.448 1-1 1z" fill="#00325a"/></g><g><path d="m52 60h-6c-2.209 0-4-1.791-4-4v-28c0-2.209 1.791-4 4-4h6c2.209 0 4 1.791 4 4v28c0 2.209-1.791 4-4 4z" fill="#fab414"/></g><g><path d="m47 37h-2c-.552 0-1-.448-1-1 0-.552.448-1 1-1h2c.552 0 1 .448 1 1 0 .552-.448 1-1 1z" fill="#dc9600"/></g><g><path d="m47 41h-2c-.552 0-1-.448-1-1 0-.552.448-1 1-1h2c.552 0 1 .448 1 1 0 .552-.448 1-1 1z" fill="#dc9600"/></g><g><path d="m47 45h-2c-.552 0-1-.448-1-1 0-.552.448-1 1-1h2c.552 0 1 .448 1 1 0 .552-.448 1-1 1z" fill="#dc9600"/></g><g><path d="m51 31h-4c-.552 0-1-.448-1-1 0-.552.448-1 1-1h4c.552 0 1 .448 1 1 0 .552-.448 1-1 1z" fill="#dc9600"/></g><g><path d="m53 47h-2c-.552 0-1-.448-1-1v-12c0-.552.448-1 1-1h2c.552 0 1 .448 1 1v12c0 .552-.448 1-1 1z" fill="#dc9600"/></g><g><path d="m49 57c-1.657 0-3-1.343-3-3v-2c0-1.657 1.343-3 3-3 1.657 0 3 1.343 3 3v2c0 1.657-1.343 3-3 3z" fill="#dc9600"/></g><g><path d="m53 46h-2c-.552 0-1-.448-1-1v-12c0-.552.448-1 1-1h2c.552 0 1 .448 1 1v12c0 .552-.448 1-1 1z" fill="#f0f0f0"/></g><g><path d="m47 36h-2c-.552 0-1-.448-1-1 0-.552.448-1 1-1h2c.552 0 1 .448 1 1 0 .552-.448 1-1 1z" fill="#00325a"/></g><g><path d="m47 40h-2c-.552 0-1-.448-1-1 0-.552.448-1 1-1h2c.552 0 1 .448 1 1 0 .552-.448 1-1 1z" fill="#00325a"/></g><g><path d="m47 44h-2c-.552 0-1-.448-1-1 0-.552.448-1 1-1h2c.552 0 1 .448 1 1 0 .552-.448 1-1 1z" fill="#00325a"/></g><g><path d="m50 34h4v2h-4z" fill="#c80a50"/></g><g><path d="m51 30h-4c-.552 0-1-.448-1-1 0-.552.448-1 1-1h4c.552 0 1 .448 1 1 0 .552-.448 1-1 1z" fill="#00325a"/></g><g><path d="m49 56c-1.657 0-3-1.343-3-3v-2c0-1.657 1.343-3 3-3 1.657 0 3 1.343 3 3v2c0 1.657-1.343 3-3 3z" fill="#f0f0f0"/></g><g><path d="m49 54c-.552 0-1-.448-1-1v-2c0-.552.448-1 1-1 .552 0 1 .448 1 1v2c0 .552-.448 1-1 1z" fill="#c80a50"/></g></g></svg>